<svg width="321" height="170" viewBox="0 0 321 170" fill="none" xmlns="http://www.w3.org/2000/svg">
<g clip-path="url(#clip0_202_10985)">
<rect width="321" height="170" rx="20" fill="white"/>
<rect x="25" y="170.578" width="145.578" height="15.9091" rx="7.95454" transform="rotate(-90 25 170.578)" fill="#E9EDF7"/>
<rect x="25" y="170.578" width="86.227" height="15.9091" rx="7.95455" transform="rotate(-90 25 170.578)" fill="black"/>
<rect x="67.4622" y="170.578" width="145.578" height="15.9091" rx="7.95454" transform="rotate(-90 67.4622 170.578)" fill="#E9EDF7"/>
<rect x="67.447" y="171" width="46" height="16" rx="8" transform="rotate(-90 67.447 171)" fill="#FF6079"/>
<rect x="110.076" y="170.578" width="145.578" height="15.9091" rx="7.95454" transform="rotate(-90 110.076 170.578)" fill="#E9EDF7"/>
<rect x="109.985" y="171" width="110" height="16" rx="8.00001" transform="rotate(-90 109.985 171)" fill="black"/>
<rect x="152.659" y="170.578" width="145.578" height="15.9091" rx="7.95454" transform="rotate(-90 152.659 170.578)" fill="#E9EDF7"/>
<rect x="152.523" y="171" width="74" height="16" rx="8" transform="rotate(-90 152.523 171)" fill="#FF6079"/>
<rect x="195.106" y="170.578" width="145.578" height="15.9091" rx="7.95453" transform="rotate(-90 195.106 170.578)" fill="#E9EDF7"/>
<rect x="195.106" y="170.578" width="100.785" height="15.909" rx="7.95452" transform="rotate(-90 195.106 170.578)" fill="black"/>
<rect x="237.553" y="170.578" width="145.578" height="15.909" rx="7.95448" transform="rotate(-90 237.553 170.578)" fill="#E9EDF7"/>
<rect x="237.553" y="170.578" width="132.14" height="15.9091" rx="7.95454" transform="rotate(-90 237.553 170.578)" fill="#FF6079"/>
<rect x="280.091" y="170.578" width="145.578" height="15.9091" rx="7.95454" transform="rotate(-90 280.091 170.578)" fill="#E9EDF7"/>
<rect x="280" y="171" width="81" height="16" rx="8" transform="rotate(-90 280 171)" fill="black"/>
</g>
<defs>
<clipPath id="clip0_202_10985">
<rect width="321" height="170" rx="20" fill="white"/>
</clipPath>
</defs>
</svg>
