<svg width="327" height="242" viewBox="0 0 327 242" fill="none" xmlns="http://www.w3.org/2000/svg">
<path d="M19.8204 227.328C19.5964 226.25 18.7004 224.864 16.4604 224.864C14.6264 224.864 13.1844 226.264 13.1844 227.818C13.1844 229.302 14.1924 230.226 15.6064 230.534L17.0204 230.842C18.0144 231.052 18.5044 231.668 18.5044 232.382C18.5044 233.25 17.8324 233.964 16.4604 233.964C14.9624 233.964 14.1784 232.942 14.0804 231.836L12.7644 232.256C12.9464 233.67 14.0804 235.21 16.4744 235.21C18.5884 235.21 19.9044 233.81 19.9044 232.27C19.9044 230.884 18.9804 229.848 17.3284 229.484L15.8444 229.162C15.0044 228.98 14.5704 228.434 14.5704 227.72C14.5704 226.796 15.3684 226.068 16.4884 226.068C17.8744 226.068 18.4764 227.048 18.5884 227.762L19.8204 227.328ZM21.1629 233.194C21.1629 234.258 22.0449 235.21 23.4169 235.21C24.6209 235.21 25.2929 234.566 25.5869 234.09C25.5869 234.58 25.6289 234.832 25.6569 235H26.9449C26.9169 234.832 26.8609 234.482 26.8609 233.894V230.52C26.8609 229.204 26.0769 228.056 24.0609 228.056C22.6049 228.056 21.4429 228.952 21.3029 230.24L22.5629 230.534C22.6469 229.75 23.1649 229.176 24.0889 229.176C25.1109 229.176 25.5449 229.722 25.5449 230.38C25.5449 230.618 25.4329 230.828 25.0269 230.884L23.2069 231.15C22.0449 231.318 21.1629 231.99 21.1629 233.194ZM23.5989 234.104C22.9269 234.104 22.5069 233.628 22.5069 233.124C22.5069 232.522 22.9269 232.2 23.4869 232.116L25.5449 231.808V232.116C25.5449 233.586 24.6769 234.104 23.5989 234.104ZM30.675 226.138H29.471V227.23C29.471 227.818 29.163 228.266 28.435 228.266H28.071V229.456H29.359V233.152C29.359 234.37 30.087 235.07 31.235 235.07C31.683 235.07 32.019 234.986 32.131 234.944V233.824C32.019 233.852 31.781 233.88 31.613 233.88C30.927 233.88 30.675 233.572 30.675 232.956V229.456H32.131V228.266H30.675V226.138Z" fill="#7F7F7F"/>
<path d="M65.2208 227.328C64.9968 226.25 64.1008 224.864 61.8608 224.864C60.0268 224.864 58.5848 226.264 58.5848 227.818C58.5848 229.302 59.5928 230.226 61.0068 230.534L62.4208 230.842C63.4148 231.052 63.9048 231.668 63.9048 232.382C63.9048 233.25 63.2328 233.964 61.8608 233.964C60.3628 233.964 59.5788 232.942 59.4808 231.836L58.1648 232.256C58.3468 233.67 59.4808 235.21 61.8748 235.21C63.9888 235.21 65.3048 233.81 65.3048 232.27C65.3048 230.884 64.3808 229.848 62.7288 229.484L61.2448 229.162C60.4048 228.98 59.9708 228.434 59.9708 227.72C59.9708 226.796 60.7688 226.068 61.8888 226.068C63.2748 226.068 63.8768 227.048 63.9888 227.762L65.2208 227.328ZM71.1342 234.188C71.1342 234.468 71.1622 234.846 71.1902 235H72.4502C72.4222 234.762 72.3802 234.286 72.3802 233.754V228.266H71.0642V232.326C71.0642 233.348 70.5322 234.048 69.4682 234.048C68.3622 234.048 67.9422 233.236 67.9422 232.312V228.266H66.6262V232.508C66.6262 234.034 67.5782 235.21 69.1462 235.21C69.9302 235.21 70.7702 234.888 71.1342 234.188ZM75.9419 231.108C75.9419 230.086 76.4739 229.26 77.5099 229.26C78.6859 229.26 79.0779 230.016 79.0779 230.954V235H80.3939V230.73C80.3939 229.232 79.5959 228.07 77.9859 228.07C77.2019 228.07 76.4039 228.392 75.9139 229.232V228.266H74.6259V235H75.9419V231.108Z" fill="#7F7F7F"/>
<path d="M113.923 235V225.074H112.089L108.561 233.152L105.061 225.074H103.199V235H104.557V227.272L107.917 235H109.177L112.565 227.272V235H113.923ZM119.192 234.034C118.072 234.034 117.092 233.194 117.092 231.626C117.092 230.072 118.072 229.232 119.192 229.232C120.312 229.232 121.292 230.072 121.292 231.626C121.292 233.194 120.312 234.034 119.192 234.034ZM119.192 228.056C117.176 228.056 115.748 229.582 115.748 231.626C115.748 233.684 117.176 235.21 119.192 235.21C121.208 235.21 122.636 233.684 122.636 231.626C122.636 229.582 121.208 228.056 119.192 228.056ZM125.635 231.108C125.635 230.086 126.167 229.26 127.203 229.26C128.379 229.26 128.771 230.016 128.771 230.954V235H130.087V230.73C130.087 229.232 129.289 228.07 127.679 228.07C126.895 228.07 126.097 228.392 125.607 229.232V228.266H124.319V235H125.635V231.108Z" fill="#7F7F7F"/>
<path d="M160.444 226.348V225.074H152.436V226.348H155.754V235H157.126V226.348H160.444ZM164.813 234.188C164.813 234.468 164.841 234.846 164.869 235H166.129C166.101 234.762 166.059 234.286 166.059 233.754V228.266H164.743V232.326C164.743 233.348 164.211 234.048 163.147 234.048C162.041 234.048 161.621 233.236 161.621 232.312V228.266H160.305V232.508C160.305 234.034 161.257 235.21 162.825 235.21C163.609 235.21 164.449 234.888 164.813 234.188ZM169.09 230.94C169.146 230.072 169.818 229.218 170.924 229.218C172.114 229.218 172.744 229.974 172.772 230.94H169.09ZM172.968 232.69C172.716 233.446 172.17 234.048 171.078 234.048C169.944 234.048 169.076 233.208 169.048 232.004H174.116C174.13 231.92 174.144 231.752 174.144 231.584C174.144 229.484 172.982 228.056 170.91 228.056C169.216 228.056 167.69 229.498 167.69 231.612C167.69 233.894 169.272 235.21 171.078 235.21C172.646 235.21 173.724 234.272 174.102 233.082L172.968 232.69Z" fill="black"/>
<path d="M206.1 232.928L203.552 225.074H202.11L199.618 232.844L197.434 225.074H196.02L198.89 235H200.262L202.824 226.95L205.414 235H206.828L209.656 225.074H208.242L206.1 232.928ZM211.346 230.94C211.402 230.072 212.074 229.218 213.18 229.218C214.37 229.218 215 229.974 215.028 230.94H211.346ZM215.224 232.69C214.972 233.446 214.426 234.048 213.334 234.048C212.2 234.048 211.332 233.208 211.304 232.004H216.372C216.386 231.92 216.4 231.752 216.4 231.584C216.4 229.484 215.238 228.056 213.166 228.056C211.472 228.056 209.946 229.498 209.946 231.612C209.946 233.894 211.528 235.21 213.334 235.21C214.902 235.21 215.98 234.272 216.358 233.082L215.224 232.69ZM218.864 231.612C218.864 230.226 219.648 229.246 220.852 229.246C222.056 229.246 222.784 230.198 222.784 231.584C222.784 232.97 222.042 234.02 220.838 234.02C219.578 234.02 218.864 232.998 218.864 231.612ZM222.798 234.09C222.798 234.496 222.84 234.846 222.868 235H224.142C224.128 234.888 224.072 234.398 224.072 233.754V224.864H222.77V229.218C222.546 228.672 221.902 228.084 220.712 228.084C218.808 228.084 217.52 229.708 217.52 231.612C217.52 233.614 218.738 235.182 220.712 235.182C221.762 235.182 222.476 234.622 222.798 233.978V234.09Z" fill="#7F7F7F"/>
<path d="M255.004 226.348V225.074H246.996V226.348H250.314V235H251.686V226.348H255.004ZM257.578 231.038C257.606 230.044 258.138 229.26 259.146 229.26C260.322 229.26 260.714 230.016 260.714 230.954V235H262.03V230.73C262.03 229.232 261.232 228.07 259.622 228.07C258.852 228.07 258.068 228.336 257.578 229.05V224.864H256.262V235H257.578V231.038ZM267.861 228.196C267.791 228.182 267.609 228.154 267.427 228.154C266.741 228.154 265.901 228.406 265.411 229.442V228.266H264.123V235H265.439V231.626C265.439 230.142 266.181 229.554 267.287 229.554C267.469 229.554 267.665 229.568 267.861 229.596V228.196Z" fill="#7F7F7F"/>
<path d="M299.113 235V230.828H303.341V229.54H299.113V226.348H303.775V225.074H297.741V235H299.113ZM308.695 228.196C308.625 228.182 308.443 228.154 308.261 228.154C307.575 228.154 306.735 228.406 306.245 229.442V228.266H304.957V235H306.273V231.626C306.273 230.142 307.015 229.554 308.121 229.554C308.303 229.554 308.499 229.568 308.695 229.596V228.196ZM311.4 235V228.266H310.098V235H311.4ZM309.804 225.718C309.804 226.236 310.224 226.656 310.742 226.656C311.274 226.656 311.694 226.236 311.694 225.718C311.694 225.186 311.274 224.766 310.742 224.766C310.224 224.766 309.804 225.186 309.804 225.718Z" fill="#7F7F7F"/>
<path d="M4 194C4 194 29.4526 189.939 44.5 178.5C59.6283 167 63.9034 152 81.9517 153.5C100 155 93.8938 181.126 117.3 178.5C148.5 175 136.162 96 163 96C182.677 96 175.672 145.871 209.56 145.5C230.001 145.276 236.758 118.5 258 118C279.242 117.5 307 129 323 194" stroke="url(#paint0_linear_202_14821)" stroke-width="4" stroke-linecap="round"/>
<g filter="url(#filter0_d_202_14821)">
<circle cx="163" cy="96" r="12" fill="white"/>
</g>
<g filter="url(#filter1_d_202_14821)">
<circle cx="163" cy="96" r="4" fill="#FF6079"/>
</g>
<path d="M157.357 65H159.093L154.907 59.498L159.037 55.074H157.231L152.583 60.184V55.074H151.211V65H152.583V62.004L153.997 60.492L157.357 65ZM162.759 59.274C163.907 59.274 164.397 60.044 164.565 60.702L165.755 60.198C165.475 59.176 164.551 58.056 162.759 58.056C160.841 58.056 159.371 59.526 159.371 61.626C159.371 63.67 160.813 65.21 162.773 65.21C164.523 65.21 165.489 64.076 165.811 63.11L164.649 62.606C164.495 63.138 164.033 63.992 162.773 63.992C161.681 63.992 160.715 63.166 160.715 61.626C160.715 60.058 161.695 59.274 162.759 59.274ZM166.866 63.194C166.866 64.258 167.748 65.21 169.12 65.21C170.324 65.21 170.996 64.566 171.29 64.09C171.29 64.58 171.332 64.832 171.36 65H172.648C172.62 64.832 172.564 64.482 172.564 63.894V60.52C172.564 59.204 171.78 58.056 169.764 58.056C168.308 58.056 167.146 58.952 167.006 60.24L168.266 60.534C168.35 59.75 168.868 59.176 169.792 59.176C170.814 59.176 171.248 59.722 171.248 60.38C171.248 60.618 171.136 60.828 170.73 60.884L168.91 61.15C167.748 61.318 166.866 61.99 166.866 63.194ZM169.302 64.104C168.63 64.104 168.21 63.628 168.21 63.124C168.21 62.522 168.63 62.2 169.19 62.116L171.248 61.808V62.116C171.248 63.586 170.38 64.104 169.302 64.104ZM175.93 65V54.864H174.614V65H175.93Z" fill="#7F7F7F"/>
<path d="M135.578 36V12.636H131.294C130.826 15.084 128.45 16.992 125.03 17.028V20.376H130.646V36H135.578ZM144.908 21.672C144.8 21.276 144.728 20.808 144.728 20.376C144.728 18.18 145.952 16.488 148.436 16.488C150.776 16.488 151.964 18 151.964 19.692C151.964 21.312 151.172 22.536 149.192 23.724L145.34 26.028C141.164 28.548 139.868 31.896 139.832 36H157.112V31.716H145.916C146.276 30.816 147.032 30.168 147.932 29.592L152.432 26.856C155.312 25.092 156.968 22.644 156.968 19.62C156.968 15.552 153.764 12.096 148.544 12.096C143.108 12.096 140.012 15.804 140.012 19.908C140.012 20.484 140.12 21.204 140.192 21.528L144.908 21.672ZM164.671 24.336C164.671 21.888 165.031 19.8 165.931 18.396C166.651 17.244 167.767 16.488 169.459 16.488C171.187 16.488 172.231 17.244 172.951 18.396C173.887 19.8 174.247 21.888 174.247 24.336C174.247 26.784 173.887 28.872 172.951 30.276C172.231 31.428 171.187 32.184 169.459 32.184C167.767 32.184 166.651 31.428 165.931 30.276C165.031 28.872 164.671 26.784 164.671 24.336ZM159.703 24.336C159.703 27.324 160.171 30.24 161.755 32.652C163.303 34.956 165.823 36.576 169.459 36.576C173.095 36.576 175.615 34.956 177.127 32.652C178.711 30.24 179.215 27.324 179.215 24.336C179.215 21.348 178.711 18.432 177.127 16.02C175.615 13.716 173.095 12.096 169.459 12.096C165.823 12.096 163.303 13.716 161.755 16.02C160.171 18.432 159.703 21.348 159.703 24.336ZM187.065 24.336C187.065 21.888 187.425 19.8 188.325 18.396C189.045 17.244 190.161 16.488 191.853 16.488C193.581 16.488 194.625 17.244 195.345 18.396C196.281 19.8 196.641 21.888 196.641 24.336C196.641 26.784 196.281 28.872 195.345 30.276C194.625 31.428 193.581 32.184 191.853 32.184C190.161 32.184 189.045 31.428 188.325 30.276C187.425 28.872 187.065 26.784 187.065 24.336ZM182.097 24.336C182.097 27.324 182.565 30.24 184.149 32.652C185.697 34.956 188.217 36.576 191.853 36.576C195.489 36.576 198.009 34.956 199.521 32.652C201.105 30.24 201.609 27.324 201.609 24.336C201.609 21.348 201.105 18.432 199.521 16.02C198.009 13.716 195.489 12.096 191.853 12.096C188.217 12.096 185.697 13.716 184.149 16.02C182.565 18.432 182.097 21.348 182.097 24.336Z" fill="#040415"/>
<defs>
<filter id="filter0_d_202_14821" x="143" y="80" width="40" height="40" filterUnits="userSpaceOnUse" color-interpolation-filters="sRGB">
<feFlood flood-opacity="0" result="BackgroundImageFix"/>
<feColorMatrix in="SourceAlpha" type="matrix" values="0 0 0 0 0 0 0 0 0 0 0 0 0 0 0 0 0 0 127 0" result="hardAlpha"/>
<feOffset dy="4"/>
<feGaussianBlur stdDeviation="4"/>
<feColorMatrix type="matrix" values="0 0 0 0 1 0 0 0 0 0.376471 0 0 0 0 0.47451 0 0 0 1 0"/>
<feBlend mode="normal" in2="BackgroundImageFix" result="effect1_dropShadow_202_14821"/>
<feBlend mode="normal" in="SourceGraphic" in2="effect1_dropShadow_202_14821" result="shape"/>
</filter>
<filter id="filter1_d_202_14821" x="151" y="88" width="24" height="24" filterUnits="userSpaceOnUse" color-interpolation-filters="sRGB">
<feFlood flood-opacity="0" result="BackgroundImageFix"/>
<feColorMatrix in="SourceAlpha" type="matrix" values="0 0 0 0 0 0 0 0 0 0 0 0 0 0 0 0 0 0 127 0" result="hardAlpha"/>
<feOffset dy="4"/>
<feGaussianBlur stdDeviation="4"/>
<feColorMatrix type="matrix" values="0 0 0 0 0.945098 0 0 0 0 0.321569 0 0 0 0 0.137255 0 0 0 0.4 0"/>
<feBlend mode="normal" in2="BackgroundImageFix" result="effect1_dropShadow_202_14821"/>
<feBlend mode="normal" in="SourceGraphic" in2="effect1_dropShadow_202_14821" result="shape"/>
</filter>
<linearGradient id="paint0_linear_202_14821" x1="60.0262" y1="176.782" x2="266.931" y2="176.782" gradientUnits="userSpaceOnUse">
<stop stop-color="#FF6079"/>
<stop offset="0.474999"/>
<stop offset="1" stop-color="#FF6079"/>
</linearGradient>
</defs>
</svg>
