<svg width="36" height="36" viewBox="0 0 36 36" fill="none" xmlns="http://www.w3.org/2000/svg">
<g id="Icon">
<g id="Group 3" opacity="0.6">
<path id="Vector" d="M25.5 30.7499V30.3749C25.5 28.7249 24.15 27.3749 22.5 27.3749H19.125V23.9399C18.75 23.9849 18.375 23.9999 18 23.9999C17.625 23.9999 17.25 23.9849 16.875 23.9399V27.3749H13.5C11.85 27.3749 10.5 28.7249 10.5 30.3749V30.7499H9C8.385 30.7499 7.875 31.2599 7.875 31.8749C7.875 32.4899 8.385 32.9999 9 32.9999H27C27.615 32.9999 28.125 32.4899 28.125 31.8749C28.125 31.2599 27.615 30.7499 27 30.7499H25.5Z" fill="url(#paint0_linear_202_11314)"/>
<path id="Vector_2" d="M5.72895 15.78C4.33395 14.235 3.41895 12.39 3.41895 10.23C3.41895 8.07 5.11395 6.375 7.27395 6.375H8.11395C7.72395 7.17 7.49895 8.055 7.49895 9V13.5C7.49895 14.91 7.76895 16.245 8.27895 17.46C7.28895 17.085 6.41895 16.47 5.72895 15.78Z" fill="url(#paint1_linear_202_11314)"/>
<path id="Vector_3" d="M30.2707 15.78C29.5807 16.47 28.7107 17.085 27.7207 17.46C28.2307 16.245 28.5007 14.91 28.5007 13.5V9C28.5007 8.055 28.2757 7.17 27.8857 6.375H28.7257C30.8857 6.375 32.5807 8.07 32.5807 10.23C32.5807 12.39 31.6657 14.235 30.2707 15.78Z" fill="url(#paint2_linear_202_11314)"/>
</g>
<path id="Vector_4" fill-rule="evenodd" clip-rule="evenodd" d="M8.5 9C8.5 5.685 11.185 3 14.5 3H23.5C26.815 3 29.5 5.685 29.5 9V13.5C29.5 19.305 24.805 24 19 24C13.195 24 8.5 19.305 8.5 13.5V9ZM22.09 14.535C22.075 14.31 22.18 13.98 22.33 13.815L23.26 12.675C23.845 11.985 23.59 11.22 22.72 10.995L21.295 10.635C21.07 10.575 20.8 10.365 20.68 10.17L19.885 8.94C19.39 8.175 18.61 8.175 18.115 8.94L17.32 10.17C17.2 10.365 16.93 10.575 16.705 10.635L15.28 10.995C14.41 11.22 14.155 11.985 14.74 12.675L15.67 13.815C15.82 13.98 15.925 14.31 15.91 14.535L15.82 16.005C15.76 16.905 16.405 17.37 17.245 17.04L18.61 16.5C18.82 16.425 19.18 16.425 19.39 16.5L20.755 17.04C21.595 17.37 22.24 16.905 22.18 16.005L22.09 14.535Z" fill="url(#paint3_linear_202_11314)"/>
</g>
<defs>
<linearGradient id="paint0_linear_202_11314" x1="-2.1839" y1="28.4404" x2="4.52688" y2="43.4396" gradientUnits="userSpaceOnUse">
<stop stop-color="white"/>
<stop offset="0.976463" stop-color="white" stop-opacity="0.8"/>
</linearGradient>
<linearGradient id="paint1_linear_202_11314" x1="1.00481" y1="11.8813" x2="9.10443" y2="15.4324" gradientUnits="userSpaceOnUse">
<stop stop-color="white"/>
<stop offset="0.976463" stop-color="white" stop-opacity="0.8"/>
</linearGradient>
<linearGradient id="paint2_linear_202_11314" x1="25.3066" y1="11.8813" x2="33.4062" y2="15.4324" gradientUnits="userSpaceOnUse">
<stop stop-color="white"/>
<stop offset="0.976463" stop-color="white" stop-opacity="0.8"/>
</linearGradient>
<linearGradient id="paint3_linear_202_11314" x1="-1.93145" y1="13.4314" x2="18.9314" y2="34.2943" gradientUnits="userSpaceOnUse">
<stop stop-color="white"/>
<stop offset="0.976463" stop-color="white" stop-opacity="0.8"/>
</linearGradient>
</defs>
</svg>
