<svg width="60" height="105" viewBox="0 0 60 105" fill="none" xmlns="http://www.w3.org/2000/svg">
<mask id="mask0_202_11182" style="mask-type:luminance" maskUnits="userSpaceOnUse" x="0" y="0" width="60" height="105">
<rect width="60" height="105" fill="white"/>
</mask>
<g mask="url(#mask0_202_11182)">
<path fill-rule="evenodd" clip-rule="evenodd" d="M28.6662 47.0181L30 48.2119L31.3338 47.0181C32.0428 46.3835 32.9742 46 34 46C36.2091 46 38 47.7909 38 50C38 50.7098 37.925 51.3755 37.788 52H35.1593L33.9191 49.1061C33.7615 48.7384 33.4 48.5 32.9999 48.5C32.5999 48.5 32.2384 48.7384 32.0808 49.1061L29.9999 53.9614L29.4191 52.6061C29.2615 52.2384 28.9 52 28.4999 52H22.212C22.075 51.3755 22 50.7098 22 50C22 47.7909 23.7909 46 26 46C27.0258 46 27.9572 46.3835 28.6662 47.0181ZM20.7307 54C22.5295 58.651 27.1667 61.0126 29.116 61.8254C29.6855 62.0628 30.3145 62.0628 30.884 61.8254C33.3285 60.8061 40 57.3512 40 50.0001C40 46.6863 37.3137 44 34 44C32.4633 44 31.0615 44.5777 30 45.5278C28.9385 44.5777 27.5367 44 26 44C22.6863 44 20 46.6863 20 50C20 50.7017 20.0608 51.368 20.1729 52H20.1728C20.2986 52.7092 20.4891 53.3752 20.7307 54H20.7307ZM22.9128 54H27.8405L29.0808 56.8939C29.2384 57.2616 29.5999 57.5 29.9999 57.5C30.4 57.5 30.7615 57.2616 30.9191 56.8939L32.9999 52.0386L33.5808 53.3939C33.7384 53.7616 34.0999 54 34.4999 54H37.0872C36.5432 55.1049 35.7979 56.0466 34.9678 56.8501C33.2456 58.5169 31.2202 59.5183 30.1143 59.9794C30.0374 60.0114 29.9626 60.0114 29.8857 59.9794C28.7798 59.5183 26.7544 58.5169 25.0322 56.8501C24.2021 56.0466 23.4568 55.105 22.9128 54Z" fill="#040415" fill-opacity="0.2"/>
</g>
</svg>
