<svg width="26" height="12" viewBox="0 0 26 12" fill="none" xmlns="http://www.w3.org/2000/svg">
<path fill-rule="evenodd" clip-rule="evenodd" d="M3.98446 0.986328C3.43294 0.994949 2.99253 1.44847 3.00008 2V5H2.00008C1.63945 4.9949 1.304 5.18438 1.12219 5.49587C0.940388 5.80737 0.940388 6.19263 1.12219 6.50413C1.304 6.81562 1.63945 7.0051 2.00008 7H3.00008V10C2.99498 10.3606 3.18446 10.6961 3.49596 10.8779C3.80745 11.0597 4.19271 11.0597 4.50421 10.8779C4.81571 10.6961 5.00518 10.3606 5.00008 10V6.16797C5.01793 6.05998 5.01793 5.94979 5.00008 5.8418V2C5.00378 1.7297 4.89791 1.46941 4.70657 1.27845C4.51524 1.08748 4.25475 0.982106 3.98446 0.986328ZM21.9845 0.986328C21.4329 0.994949 20.9925 1.44847 21.0001 2V5.83203C20.9822 5.94002 20.9822 6.05021 21.0001 6.1582V10C20.995 10.3606 21.1845 10.6961 21.496 10.8779C21.8075 11.0597 22.1927 11.0597 22.5042 10.8779C22.8157 10.6961 23.0052 10.3606 23.0001 10V7H24.0001C24.3607 7.0051 24.6962 6.81562 24.878 6.50413C25.0598 6.19263 25.0598 5.80737 24.878 5.49587C24.6962 5.18438 24.3607 4.9949 24.0001 5H23.0001V2C23.0038 1.7297 22.8979 1.46941 22.7066 1.27845C22.5152 1.08748 22.2548 0.982106 21.9845 0.986328Z" fill="white"/>
</svg>
